<?xml version="1.0" encoding="UTF-8" standalone="no"?>
<svg
   xmlns:dc="http://purl.org/dc/elements/1.1/"
   xmlns:cc="http://creativecommons.org/ns#"
   xmlns:rdf="http://www.w3.org/1999/02/22-rdf-syntax-ns#"
   xmlns:svg="http://www.w3.org/2000/svg"
   xmlns="http://www.w3.org/2000/svg"
   xmlns:sodipodi="http://sodipodi.sourceforge.net/DTD/sodipodi-0.dtd"
   xmlns:inkscape="http://www.inkscape.org/namespaces/inkscape"
   width="1280"
   height="640"
   viewBox="0 0 338.66667 169.33334"
   version="1.1"
   id="svg954"
   inkscape:version="1.0 (9f2f71dc58, 2020-08-02)"
   sodipodi:docname="banner.svg"
   inkscape:export-filename="/home/sergio/Dropbox/Compartidas/Aula de Software Libre/Grafismo/proyectos/nosfaltauno/banner.png"
   inkscape:export-xdpi="96"
   inkscape:export-ydpi="96">
  <defs
     id="defs948" />
  <sodipodi:namedview
     id="base"
     pagecolor="#ffffff"
     bordercolor="#666666"
     borderopacity="1.0"
     inkscape:pageopacity="0.0"
     inkscape:pageshadow="2"
     inkscape:zoom="0.7"
     inkscape:cx="730.38363"
     inkscape:cy="321.64892"
     inkscape:document-units="mm"
     inkscape:current-layer="layer1"
     inkscape:document-rotation="0"
     showgrid="false"
     units="px"
     inkscape:window-width="1920"
     inkscape:window-height="995"
     inkscape:window-x="0"
     inkscape:window-y="48"
     inkscape:window-maximized="1" />
  <metadata
     id="metadata951">
    <rdf:RDF>
      <cc:Work
         rdf:about="">
        <dc:format>image/svg+xml</dc:format>
        <dc:type
           rdf:resource="http://purl.org/dc/dcmitype/StillImage" />
        <dc:title></dc:title>
      </cc:Work>
    </rdf:RDF>
  </metadata>
  <g
     inkscape:label="Layer 1"
     inkscape:groupmode="layer"
     id="layer1">
    <rect
       style="fill:#46237e;fill-opacity:1;stroke-width:6.42963;stroke-linecap:round;stroke-linejoin:round;stroke-miterlimit:4;stroke-dasharray:none;stop-color:#000000"
       id="rect1276-49-3"
       width="338.66666"
       height="169.33333"
       x="0"
       y="0"
       inkscape:transform-center-x="152.30998"
       inkscape:transform-center-y="-35.474304" />
    <g
       id="g1572"
       transform="matrix(1.6471232,0,0,1.6471224,-145.40399,-53.407897)">
      <path
         d="m 168.67094,64.117599 v 10.017072 l -7.11739,-10.017072 h -3.1633 v 18.45252 h 4.21772 V 72.55305 l 7.1174,10.017069 h 3.1633 v -18.45252 z"
         style="font-style:normal;font-variant:normal;font-weight:800;font-stretch:normal;font-size:10.5833px;line-height:1;font-family:Gilroy;-inkscape-font-specification:'Gilroy Ultra-Bold';text-align:center;letter-spacing:0px;word-spacing:0px;text-anchor:middle;fill:#ffffff;stroke-width:0.659019"
         id="path1511-6" />
      <path
         d="m 185.35133,82.939149 c 5.29849,0 9.5953,-4.164999 9.5953,-9.595281 0,-5.430309 -4.29681,-9.595329 -9.5953,-9.595329 -5.29851,0 -9.59532,4.16502 -9.59532,9.595329 0,5.430282 4.29681,9.595281 9.59532,9.595281 z m 0,-4.112249 c -3.00515,0 -5.37759,-2.187972 -5.37759,-5.483032 0,-3.295109 2.37244,-5.483039 5.37759,-5.483039 3.00513,0 5.37757,2.18793 5.37757,5.483039 0,3.29506 -2.37244,5.483032 -5.37757,5.483032 z"
         style="font-style:normal;font-variant:normal;font-weight:800;font-stretch:normal;font-size:10.5833px;line-height:1;font-family:Gilroy;-inkscape-font-specification:'Gilroy Ultra-Bold';text-align:center;letter-spacing:0px;word-spacing:0px;text-anchor:middle;fill:#ffffff;stroke-width:0.659019"
         id="path1513-3" />
      <path
         d="m 203.90578,82.939149 c 4.00687,0 6.85381,-2.10884 6.85381,-5.66756 0,-3.901361 -3.13692,-4.87671 -5.93117,-5.72026 -2.87331,-0.86991 -3.32146,-1.44984 -3.32146,-2.29339 0,-0.7381 0.65905,-1.39711 1.97706,-1.39711 1.68709,0 2.557,0.81717 3.18966,2.13523 l 3.5587,-2.0825 c -1.3444,-2.71516 -3.71687,-4.16502 -6.74836,-4.16502 -3.18965,0 -6.19476,2.05615 -6.19476,5.61485 0,3.532341 2.68878,4.850371 5.43031,5.614839 2.76787,0.764442 3.8223,1.212602 3.8223,2.346093 0,0.711747 -0.50085,1.502579 -2.50427,1.502579 -2.08249,0 -3.216,-1.028081 -3.87502,-2.55701 l -3.6378,2.108869 c 1.02808,2.715141 3.50599,4.56039 7.381,4.56039 z"
         style="font-style:normal;font-variant:normal;font-weight:800;font-stretch:normal;font-size:10.5833px;line-height:1;font-family:Gilroy;-inkscape-font-specification:'Gilroy Ultra-Bold';text-align:center;letter-spacing:0px;word-spacing:0px;text-anchor:middle;fill:#ffffff;stroke-width:0.659019"
         id="path1515-8" />
      <path
         d="m 169.59356,89.514 v -4.05955 h -11.20331 v 18.45251 h 4.21772 v -6.774711 h 6.85377 V 93.07272 h -6.85377 V 89.514 Z"
         style="font-style:normal;font-variant:normal;font-weight:800;font-stretch:normal;font-size:10.5833px;line-height:1;font-family:Gilroy;-inkscape-font-specification:'Gilroy Ultra-Bold';text-align:center;letter-spacing:0px;word-spacing:0px;text-anchor:middle;fill:#ffffff;stroke-width:0.659019"
         id="path1518-95" />
      <path
         d="M 193.44797,99.847411 V 85.45445 h -4.21772 v 18.45251 h 10.80792 v -4.059549 z"
         style="font-style:normal;font-variant:normal;font-weight:800;font-stretch:normal;font-size:10.5833px;line-height:1;font-family:Gilroy;-inkscape-font-specification:'Gilroy Ultra-Bold';text-align:center;letter-spacing:0px;word-spacing:0px;text-anchor:middle;fill:#ffffff;stroke-width:0.659019"
         id="path1522-0" />
      <path
         d="M 214.04867,85.45445 H 198.72423 V 89.514 h 4.74495 v 14.39296 h 4.98179 V 89.514 h 5.5977 z"
         style="font-style:normal;font-variant:normal;font-weight:800;font-stretch:normal;font-size:10.5833px;line-height:1;font-family:Gilroy;-inkscape-font-specification:'Gilroy Ultra-Bold';text-align:center;letter-spacing:0px;word-spacing:0px;text-anchor:middle;fill:#ffffff;stroke-width:0.659019"
         id="path1524-1"
         sodipodi:nodetypes="ccccccccc" />
      <path
         d="m 226.03592,99.944568 4.16528,-1.406379 -11.29067,-14.72329 -5.1037,1.63893 0.20923,18.446441 4.16527,-1.30358 -0.0505,-2.89937 6.18852,-2.08952 z m -7.96866,-4.203139 -0.11334,-6.775741 4.01726,5.457682 z"
         style="font-style:normal;font-variant:normal;font-weight:800;font-stretch:normal;font-size:10.5833px;line-height:1;font-family:Gilroy;-inkscape-font-specification:'Gilroy Ultra-Bold';text-align:center;letter-spacing:0px;word-spacing:0px;text-anchor:middle;fill:#ffffff;stroke-width:0.628039"
         id="path1526-7"
         sodipodi:nodetypes="ccccccccccccc" />
      <path
         d="m 182.89351,103.90696 h 4.61314 l -6.27383,-18.45251 h -5.37762 l -6.27384,18.45251 h 4.61313 l 0.92261,-2.89967 h 6.85379 z m -6.51109,-6.853801 2.16158,-6.77469 2.16158,6.77469 z"
         style="font-style:normal;font-variant:normal;font-weight:800;font-stretch:normal;font-size:10.5833px;line-height:1;font-family:Gilroy;-inkscape-font-specification:'Gilroy Ultra-Bold';text-align:center;letter-spacing:0px;word-spacing:0px;text-anchor:middle;fill:#ffffff;stroke-width:0.659019"
         id="path1520-3-1" />
      <g
         aria-label="1"
         id="text835-4-6-3"
         style="font-style:normal;font-variant:normal;font-weight:800;font-stretch:normal;font-size:10.5833px;line-height:1;font-family:Gilroy;-inkscape-font-specification:'Gilroy Ultra-Bold';text-align:center;letter-spacing:0px;word-spacing:0px;text-anchor:middle;fill:#46237e;fill-opacity:1;stroke-width:0.264583"
         transform="matrix(2.5970848,0,0,2.5970848,-300.76981,-189.15832)">
        <path
           d="m 196.08924,106.29375 -1.40668,0.9304 0.41274,1.80539 1.40928,-0.94722 v 4.76143 h 1.69333 v -6.55 z"
           style="font-style:normal;font-variant:normal;font-weight:800;font-stretch:normal;font-family:Gilroy;-inkscape-font-specification:'Gilroy Ultra-Bold';fill:#46237e;fill-opacity:1;stroke-width:0.264583"
           id="path1617-9"
           sodipodi:nodetypes="cccccccc" />
      </g>
    </g>
  </g>
</svg>
